 http://www.imdb.com/title/tt1496884/

Format                                   : AVI
Format/Info                              : Audio Video Interleave
File size                                : 701 MiB
Duration                                 : 1h 18mn
Overall bit rate                         : 1 247 Kbps
Writing library                          : VirtualDub build 32842/release

Video
ID                                       : 0
Format                                   : MPEG-4 Visual
Format profile                           : Advanced Simple@L5
Format settings, BVOP                    : 4
Format settings, QPel                    : No
Format settings, GMC                     : No warppoints
Format settings, Matrix                  : Default (H.263)
Muxing mode                              : Packed bitstream
Codec ID                                 : XVID
Codec ID/Hint                            : XviD
Duration                                 : 1h 18mn
Bit rate                                 : 1 109 Kbps
Width                                    : 640 pixels
Height                                   : 272 pixels
Display aspect ratio                     : 2.35:1
Frame rate                               : 25.000 fps
Color space                              : YUV
Chroma subsampling                       : 4:2:0
Bit depth                                : 8 bits
Scan type                                : Progressive
Compression mode                         : Lossy
Bits/(Pixel*Frame)                       : 0.255
Stream size                              : 623 MiB (89%)
Writing library                          : XviD 64

Audio
ID                                       : 1
Format                                   : MPEG Audio
Format version                           : Version 1
Format profile                           : Layer 3
Codec ID                                 : 55
Codec ID/Hint                            : MP3
Duration                                 : 1h 18mn
Bit rate mode                            : Constant
Bit rate                                 : 128 Kbps
Channel(s)                               : 2 channels
Sampling rate                            : 44.1 KHz
Compression mode                         : Lossy
Stream size                              : 71.9 MiB (10%)
Alignment                                : Split accross interleaves
Interleave, duration                     : 40 ms (1.00 video frame)
Interleave, preload duration             : 500 ms
Writing library                          : LAME3.99r
Encoding settings                        : -m s -V 4 -q 3 -lowpass 17 -b 128


Plot
They say squatting is dead - a term that takes on a sinister double meaning when four homeless art students decide to take up residence in an abandoned London House where a hidden terror lurks.

 
http://www.shotpix.com/images/68489335978831907296.png 
http://www.shotpix.com/images/31718620682722296568.png 
http://www.shotpix.com/images/94682392854873208102.png 
http://www.shotpix.com/images/72466941546731034699.png